<svg xmlns="http://www.w3.org/2000/svg" viewBox="0 0 420 356" role="img" aria-labelledby="title desc">
  <title id="title">History Matters</title>
  <desc id="desc">White History Matters wordmark on a black background with a wide smiling underline.</desc>
  <rect width="420" height="356" rx="28" fill="#000"/>
  <g stroke-linecap="round" stroke-linejoin="round">
    <g transform="rotate(-3 210 108)">
      <text x="36" y="124" font-family="Impact, Arial Black, sans-serif" font-size="76" font-weight="900" letter-spacing="1.5" fill="none" stroke="#fff" stroke-width="8">HIST</text>
      <text x="262" y="124" font-family="Impact, Arial Black, sans-serif" font-size="76" font-weight="900" letter-spacing="0" fill="none" stroke="#fff" stroke-width="8">RY</text>
      <path d="M230 61c18-18 48-8 52 18 18 2 27 20 14 33 12 16-3 34-21 29-8 18-34 20-44 2-22 5-39-16-28-33-14-14-5-34 13-37 2-5 7-9 14-12z" fill="#000" stroke="#fff" stroke-width="9"/>
      <ellipse cx="246" cy="116" rx="8" ry="15" fill="#fff" stroke="none"/>
      <circle cx="231" cy="88" r="4" fill="#fff"/>
      <circle cx="263" cy="88" r="4" fill="#fff"/>
      <path d="M216 107q8-10 18-3" fill="none" stroke="#fff" stroke-width="5"/>
      <path d="M264 132q11 3 17-7" fill="none" stroke="#fff" stroke-width="5"/>
      <path d="M230 132q-10 3-16-7" fill="none" stroke="#fff" stroke-width="5"/>
      <path d="M180 49l18 20 12-30 15 29 22-34 7 52-79 8z" fill="#fff"/>
      <path d="M55 75q6 16 12 0m18-12q6 16 12 0m-8 49q6 16 12 0" fill="none" stroke="#fff" stroke-width="6"/>
    </g>
    <text x="54" y="220" font-family="Impact, Arial Black, sans-serif" font-size="82" font-weight="900" letter-spacing="4" fill="#fff">MATTERS</text>
    <path d="M52 252c88 30 235 35 316 0-49 86-244 86-316 0z" fill="#fff"/>
    <path d="M80 274l13 10 8-18 16 28 17-31 18 36 21-37 18 39 23-41 18 38 23-44 21 44 20-37 21 31 16-27 17 20 15-17" fill="none" stroke="#000" stroke-width="7"/>
  </g>
</svg>
